<svg preserveAspectRatio="none" overflow="visible" style="display: block;" width="48" height="46.9565" viewBox="0 0 48 46.9565" fill="none" xmlns="http://www.w3.org/2000/svg">
<g id="Group 42">
<ellipse id="Ellipse 16" cx="24" cy="23.4783" rx="24" ry="23.4783" fill="white"/>
<g id="Phosphor Icons Regular / HeartStraight">
<path id="Vector (Stroke)" fill-rule="evenodd" clip-rule="evenodd" d="M27.1558 14.4223C27.959 14.0905 28.8189 13.9323 29.683 13.9572C30.5471 13.9822 31.3972 14.1898 32.1814 14.5675C32.9653 14.945 33.6668 15.4844 34.2432 16.1529C36.5762 18.8471 36.171 22.9761 33.7893 25.4619L33.7878 25.4635L25.2036 34.3779L24.6041 33.7553L25.2007 34.3809C24.8812 34.7095 24.4497 34.8938 24 34.8938C23.5503 34.8938 23.1188 34.7095 22.7993 34.3809L22.7964 34.3779L13.9896 25.2324C13.3786 24.5974 12.8985 23.8395 12.579 23.0054C12.2595 22.1713 12.1071 21.2783 12.1311 20.381C12.1551 19.4837 12.3551 18.6009 12.7187 17.7866C13.0823 16.9725 13.6017 16.244 14.2454 15.6454C16.8399 13.2227 20.816 13.6435 23.2097 16.1168L23.2135 16.1207L24.0003 16.9441L25.0094 15.8893L25.0116 15.887C25.623 15.2525 26.3527 14.7541 27.1558 14.4223ZM24.0075 33.1298C24.0074 33.1299 24.0076 33.1297 24.0075 33.1298L32.5873 24.2199C32.5875 24.2197 32.5877 24.2195 32.5879 24.2193C34.4233 22.303 34.6328 19.2356 32.9819 17.3297L32.9805 17.3281C32.5577 16.8377 32.0431 16.4419 31.468 16.1649C30.8929 15.888 30.2695 15.7357 29.6359 15.7174C29.0022 15.6991 28.3716 15.8152 27.7826 16.0585C27.194 16.3016 26.6594 16.6667 26.2112 17.1315C26.2108 17.1319 26.2105 17.1322 26.2102 17.1326L24.6015 18.8141C24.4423 18.9806 24.2257 19.0741 23.9998 19.0741C23.7739 19.074 23.5573 18.9803 23.3982 18.8138L22.0119 17.3632C20.1666 15.4583 17.2136 15.2413 15.3787 16.9553L15.3772 16.9567C14.9049 17.3957 14.5237 17.9302 14.257 18.5274C13.9903 19.1246 13.8437 19.772 13.8261 20.43C13.8085 21.088 13.9202 21.7429 14.1545 22.3545C14.3888 22.9662 14.7408 23.5218 15.1889 23.9875L23.9925 33.1298C23.9924 33.1297 23.9926 33.1299 23.9925 33.1298C23.9945 33.1316 23.9973 33.133 24 33.133C24.0027 33.133 24.0055 33.1316 24.0075 33.1298Z" fill="#AF6B84"/>
</g>
</g>
</svg>
